<svg width="188" height="45" viewBox="0 0 188 45" fill="none" xmlns="http://www.w3.org/2000/svg">
<g id="Siemens-logo 1">
<g id="Ebene_x0020_1">
<path id="Vector" fill-rule="evenodd" clip-rule="evenodd" d="M179.156 9.31156V14.5576C176.453 13.5316 174.046 13.0128 171.939 13.0128C170.691 13.0128 169.698 13.2451 168.951 13.6942C168.203 14.1472 167.822 14.7047 167.822 15.3629C167.822 16.2379 168.666 17.016 170.364 17.713L175.27 20.1134C179.237 22.0143 181.205 24.5386 181.205 27.7094C181.205 30.346 180.161 32.4483 178.055 34.0047C175.964 35.5766 173.148 36.3548 169.644 36.3548C168.026 36.3548 166.575 36.2851 165.284 36.1379C163.994 35.9986 162.512 35.7121 160.867 35.3017V29.8118C163.883 30.8378 166.628 31.3565 169.101 31.3565C172.051 31.3565 173.518 30.497 173.518 28.7625C173.518 27.8992 172.917 27.2023 171.697 26.6564L166.247 24.3218C164.237 23.4081 162.743 22.3008 161.764 20.9883C160.802 19.6643 160.312 18.1466 160.312 16.4121C160.312 13.9845 161.329 12.0294 163.339 10.5427C165.365 9.06757 168.053 8.32812 171.396 8.32812C172.482 8.32812 173.734 8.42488 175.12 8.60299C176.518 8.79271 177.862 9.025 179.156 9.31156Z" fill="#009999"/>
<path id="Vector_2" fill-rule="evenodd" clip-rule="evenodd" d="M24.8184 9.31156V14.5576C22.1149 13.5316 19.7118 13.0128 17.6052 13.0128C16.3535 13.0128 15.3639 13.2451 14.6167 13.6942C13.8696 14.1472 13.4883 14.7047 13.4883 15.3629C13.4883 16.2379 14.3433 17.016 16.0416 17.713L20.948 20.1134C24.8992 22.0143 26.8711 24.5386 26.8711 27.7094C26.8711 30.346 25.8236 32.4483 23.7324 34.0047C21.6258 35.5766 18.826 36.3548 15.31 36.3548C13.6925 36.3548 12.2367 36.2851 10.9466 36.1379C9.65645 35.9986 8.18915 35.7121 6.53323 35.3017V29.8118C9.56021 30.8378 12.3061 31.3565 14.7631 31.3565C17.7131 31.3565 19.1803 30.497 19.1803 28.7625C19.1803 27.8992 18.5834 27.2023 17.3741 26.6564L11.9248 24.3218C9.89906 23.4081 8.40481 22.3008 7.44208 20.9883C6.46385 19.6643 5.98633 18.1466 5.98633 16.4121C5.98633 13.9845 6.99535 12.0294 9.01716 10.5427C11.0275 9.06757 13.7194 8.32812 17.0622 8.32812C18.1598 8.32812 19.396 8.42488 20.7978 8.60299C22.1842 8.79271 23.5283 9.025 24.8184 9.31156Z" fill="#009999"/>
<path id="Vector_3" fill-rule="evenodd" clip-rule="evenodd" d="M30.4414 8.81934H38.4326V35.8626H30.4414V8.81934Z" fill="#009999"/>
<path id="Vector_4" fill-rule="evenodd" clip-rule="evenodd" d="M64.177 8.81934V13.8177H52.3039V19.8147H62.6019V24.3213H52.3039V30.6166H64.4196V35.8626H44.6133V8.81934H64.177Z" fill="#009999"/>
<path id="Vector_5" fill-rule="evenodd" clip-rule="evenodd" d="M101.482 8.81934V35.8626H94.0219V18.0261L86.2815 36.1104H81.6756L74.2314 18.0261V35.8626H68.8359V8.81934H78.5908L85.2494 25.3744L92.2162 8.81934H101.482Z" fill="#009999"/>
<path id="Vector_6" fill-rule="evenodd" clip-rule="evenodd" d="M127.216 8.81934V13.8177H115.408V19.8147H125.706V24.3213H115.408V30.6166H127.459V35.8626H107.652V8.81934H127.216Z" fill="#009999"/>
<path id="Vector_7" fill-rule="evenodd" clip-rule="evenodd" d="M155.257 8.81934V35.8626H146.781L137.269 18.5177V35.8626H131.877V8.81934H140.6L149.866 25.8661V8.81934H155.257Z" fill="#009999"/>
</g>
</g>
</svg>
