<svg width="215" height="51" viewBox="0 0 215 51" fill="none" xmlns="http://www.w3.org/2000/svg">
<g id="Group 72">
<g id="logotype">
<path id="logotype-b-47" fill-rule="evenodd" clip-rule="evenodd" d="M86.426 24.5866C87.7785 24.0635 88.9388 23.1399 89.7517 21.9395C90.5646 20.739 90.9913 19.319 90.9747 17.8695C90.9747 11.824 86.6845 8.82715 80.7919 8.82715H65.3369V41.6999H82.1358C87.3048 41.6999 92.3703 38.083 92.3703 32.5542C92.3703 25.9817 86.426 24.6486 86.426 24.5866ZM73.4004 15.6476H79.3963C79.7803 15.6239 80.1651 15.676 80.5289 15.8011C80.8927 15.9261 81.2282 16.1217 81.5162 16.3765C81.8043 16.6314 82.0393 16.9405 82.2077 17.2862C82.3761 17.632 82.4746 18.0075 82.4977 18.3913C82.4977 18.5085 82.4977 18.6273 82.4977 18.7479C82.4814 19.556 82.1463 20.325 81.5654 20.8873C80.9845 21.4496 80.2049 21.7596 79.3963 21.7499H73.3487L73.4004 15.6476ZM79.448 34.8174H73.4521V28.3586H79.293C82.2392 28.3586 83.6348 29.6503 83.6348 31.5621C83.6348 33.9493 81.8774 34.8174 79.448 34.8174Z" fill="#ED0007"/>
<path id="logotype-o-47" fill-rule="evenodd" clip-rule="evenodd" d="M110.151 8.00098C100.641 8.00098 95.0581 15.5965 95.0581 25.2072C95.0581 34.8179 100.641 42.4135 110.151 42.4135C119.662 42.4135 125.244 34.8696 125.244 25.2072C125.244 15.5449 119.714 8.00098 110.151 8.00098ZM110.151 34.5596C105.499 34.5596 103.173 30.3743 103.173 25.2072C103.173 20.0402 105.499 15.9066 110.151 15.9066C114.803 15.9066 117.181 20.0919 117.181 25.2072C117.181 30.426 114.803 34.5596 110.151 34.5596Z" fill="#ED0007"/>
<path id="logotype-s-47" fill-rule="evenodd" clip-rule="evenodd" d="M142.767 21.7452L141.63 21.4869C138.839 20.9185 136.616 20.1951 136.616 18.18C136.616 16.0098 138.735 15.1314 140.596 15.1314C141.866 15.1503 143.118 15.4308 144.274 15.9553C145.43 16.4799 146.466 17.2372 147.316 18.18L152.433 13.1163C150.107 10.4811 146.334 7.94922 140.441 7.94922C133.515 7.94922 128.243 11.8245 128.243 18.2833C128.243 24.1737 132.481 27.0673 137.65 28.1524L138.787 28.4107C143.077 29.2891 144.68 29.9608 144.68 32.0277C144.68 33.9911 142.922 35.2829 140.234 35.2829C137.03 35.2829 134.135 33.8878 131.912 31.0459L126.692 36.213C129.586 39.6749 133.256 42.3617 140.338 42.3617C146.489 42.3617 153.053 38.8482 153.053 31.666C153.157 24.1737 147.471 22.727 142.767 21.7452Z" fill="#ED0007"/>
<path id="logotype-c-47" fill-rule="evenodd" clip-rule="evenodd" d="M171.454 34.5597C167.836 34.5597 164.063 31.5628 164.063 25.0006C164.063 19.1619 167.578 15.9066 171.248 15.9066C174.142 15.9066 175.848 17.2501 177.192 19.5752L183.808 15.1833C180.5 10.1712 176.572 8.05273 171.144 8.05273C161.22 8.05273 155.844 15.7516 155.844 25.0523C155.844 34.818 161.788 42.4653 171.041 42.4653C177.554 42.4653 180.655 40.1918 184.015 35.3347L177.347 30.8497C176.003 33.0096 174.556 34.5597 171.454 34.5597Z" fill="#ED0007"/>
<path id="logotype-h-47" fill-rule="evenodd" clip-rule="evenodd" d="M205.88 8.82715V20.918H195.904V8.82715H187.271V41.6896H195.904V28.7203H205.88V41.6896H214.512V8.82715H205.88Z" fill="#ED0007"/>
</g>
<g id="symbol">
<path id="Vector" d="M25.6036 0.457031C20.676 0.457031 15.8591 1.91769 11.762 4.65431C7.66493 7.39092 4.47163 11.2806 2.58594 15.8314C0.700248 20.3822 0.206866 25.3898 1.16818 30.2209C2.1295 35.0521 4.50234 39.4897 7.98664 42.9728C11.4709 46.4558 15.9102 48.8278 20.7431 49.7888C25.5759 50.7498 30.5853 50.2566 35.1378 48.3716C39.6903 46.4865 43.5813 43.2944 46.3189 39.1988C49.0565 35.1031 50.5177 30.288 50.5177 25.3622C50.5177 18.7569 47.8928 12.4222 43.2205 7.75158C38.5482 3.08096 32.2112 0.457031 25.6036 0.457031ZM25.6036 47.9422C21.1361 47.9422 16.7689 46.6179 13.0543 44.1368C9.3397 41.6556 6.44453 38.1291 4.73489 34.0032C3.02525 29.8772 2.57793 25.3371 3.44949 20.9571C4.32106 16.577 6.47237 12.5536 9.63137 9.39573C12.7904 6.23786 16.8152 4.08732 21.1969 3.21607C25.5785 2.34482 30.1202 2.79197 34.2477 4.501C38.3751 6.21003 41.9029 9.10416 44.3849 12.8174C46.8669 16.5307 48.1917 20.8963 48.1917 25.3622C48.1903 31.3504 45.8101 37.0929 41.5743 41.3271C37.3385 45.5614 31.5939 47.9408 25.6036 47.9422Z" fill="white"/>
<path id="Vector_2" d="M35.8896 9.80957H34.1839V18.3352H17.0748V9.80957H15.3174C12.7433 11.5071 10.6308 13.8165 9.16915 16.5309C7.70749 19.2453 6.94238 22.2797 6.94238 25.3624C6.94238 28.445 7.70749 31.4795 9.16915 34.1939C10.6308 36.9082 12.7433 39.2177 15.3174 40.9152H17.0748V32.3999H34.1839V40.9255H35.8896C38.4648 39.2288 40.5784 36.9197 42.0408 34.2052C43.5033 31.4907 44.2688 28.4558 44.2688 25.3727C44.2688 22.2896 43.5033 19.2547 42.0408 16.5402C40.5784 13.8258 38.4648 11.5166 35.8896 9.8199V9.80957ZM14.6971 37.5669C13.0941 36.1431 11.7873 34.4175 10.8514 32.4888C9.91545 30.56 9.36877 28.4659 9.24254 26.3259C9.1163 24.1859 9.41298 22.0421 10.1156 20.0167C10.8183 17.9914 11.9131 16.1242 13.3377 14.5219C13.7647 14.0451 14.2186 13.5932 14.6971 13.1681V37.5669ZM34.1839 30.0231H17.0748V20.6604H34.1839V30.0231ZM36.5099 37.5153V32.3482V18.3352V13.1681C38.109 14.6036 39.4096 16.3399 40.3372 18.278C41.2647 20.216 41.8012 22.3178 41.916 24.4632C42.0307 26.6086 41.7214 28.7556 41.0058 30.7814C40.2901 32.8073 39.1822 34.6723 37.7453 36.27C37.3544 36.7021 36.9421 37.1142 36.5099 37.5049V37.5153Z" fill="white"/>
</g>
</g>
</svg>
