<svg width="214" height="51" viewBox="0 0 214 51" fill="none" xmlns="http://www.w3.org/2000/svg">
<path fill-rule="evenodd" clip-rule="evenodd" d="M85.8079 24.5874C87.1614 24.0643 88.3227 23.1407 89.1363 21.9402C89.9499 20.7398 90.3769 19.3197 90.3603 17.8702C90.3603 11.8248 86.0665 8.82788 80.1691 8.82788H64.7012V41.7006H81.5141C86.6873 41.7006 91.7571 38.0837 91.7571 32.555C91.7571 25.9825 85.8079 24.6494 85.8079 24.5874ZM72.7714 15.6484H78.7723C79.1566 15.6246 79.5418 15.6767 79.9058 15.8018C80.2699 15.9269 80.6057 16.1224 80.894 16.3773C81.1823 16.6321 81.4174 16.9412 81.586 17.287C81.7545 17.6327 81.8532 18.0082 81.8762 18.3921C81.8762 18.5092 81.8762 18.628 81.8762 18.7486C81.8599 19.5568 81.5245 20.3257 80.9432 20.888C80.3618 21.4503 79.5815 21.7604 78.7723 21.7507H72.7196L72.7714 15.6484ZM78.824 34.8181H72.8231V28.3593H78.6688C81.6176 28.3593 83.0143 29.6511 83.0143 31.5629C83.0143 33.9501 81.2554 34.8181 78.824 34.8181Z" fill="#ED0007"/>
<path fill-rule="evenodd" clip-rule="evenodd" d="M109.553 8.0011C100.034 8.0011 94.4473 15.5967 94.4473 25.2074C94.4473 34.8181 100.034 42.4136 109.553 42.4136C119.072 42.4136 124.659 34.8697 124.659 25.2074C124.659 15.545 119.123 8.0011 109.553 8.0011ZM109.553 34.5597C104.897 34.5597 102.569 30.3744 102.569 25.2074C102.569 20.0403 104.897 15.9067 109.553 15.9067C114.209 15.9067 116.589 20.092 116.589 25.2074C116.589 30.4261 114.209 34.5597 109.553 34.5597Z" fill="#ED0007"/>
<path fill-rule="evenodd" clip-rule="evenodd" d="M142.196 21.7455L141.058 21.4871C138.264 20.9187 136.04 20.1954 136.04 18.1802C136.04 16.0101 138.161 15.1317 140.023 15.1317C141.294 15.1506 142.547 15.431 143.704 15.9556C144.861 16.4801 145.898 17.2375 146.749 18.1802L151.87 13.1165C149.542 10.4813 145.766 7.94946 139.868 7.94946C132.936 7.94946 127.659 11.8247 127.659 18.2836C127.659 24.174 131.901 27.0675 137.075 28.1526L138.213 28.411C142.506 29.2894 144.11 29.9611 144.11 32.0279C144.11 33.9914 142.351 35.2831 139.661 35.2831C136.454 35.2831 133.557 33.888 131.332 31.0462L126.107 36.2132C129.004 39.6751 132.677 42.362 139.765 42.362C145.921 42.362 152.491 38.8484 152.491 31.6662C152.594 24.174 146.904 22.7272 142.196 21.7455Z" fill="#ED0007"/>
<path fill-rule="evenodd" clip-rule="evenodd" d="M170.907 34.5598C167.286 34.5598 163.51 31.5629 163.51 25.0008C163.51 19.162 167.027 15.9068 170.7 15.9068C173.597 15.9068 175.304 17.2502 176.65 19.5754L183.271 15.1834C179.96 10.1713 176.029 8.05286 170.597 8.05286C160.664 8.05286 155.284 15.7518 155.284 25.0524C155.284 34.8181 161.233 42.4654 170.493 42.4654C177.012 42.4654 180.116 40.1919 183.478 35.3349L176.805 30.8499C175.46 33.0097 174.011 34.5598 170.907 34.5598Z" fill="#ED0007"/>
<path fill-rule="evenodd" clip-rule="evenodd" d="M205.361 8.82788V20.9188H195.377V8.82788H186.737V41.6903H195.377V28.721H205.361V41.6903H214V8.82788H205.361Z" fill="#ED0007"/>
<path d="M24.9349 0.457275C20.0032 0.457275 15.1823 1.91794 11.0818 4.65455C6.98129 7.39116 3.78533 11.2808 1.89807 15.8316C0.0108039 20.3825 -0.48299 25.3901 0.479128 30.2212C1.44125 35.0523 3.81606 39.49 7.30327 42.973C10.7905 46.4561 15.2334 48.8281 20.0703 49.789C24.9072 50.75 29.9208 50.2568 34.477 48.3718C39.0333 46.4868 42.9276 43.2946 45.6675 39.199C48.4073 35.1034 49.8698 30.2882 49.8698 25.3624C49.8698 18.7572 47.2427 12.4224 42.5665 7.75183C37.8903 3.0812 31.548 0.457275 24.9349 0.457275ZM24.9349 47.9424C20.4637 47.9424 16.0928 46.6181 12.3751 44.137C8.65746 41.6559 5.75987 38.1294 4.04881 34.0034C2.33774 29.8775 1.89005 25.3374 2.76234 20.9573C3.63463 16.5772 5.78773 12.5538 8.94937 9.39597C12.111 6.2381 16.1392 4.08757 20.5245 3.21631C24.9098 2.34506 29.4553 2.79222 33.5862 4.50124C37.7171 6.21027 41.2478 9.1044 43.7319 12.8177C46.2159 16.5309 47.5418 20.8965 47.5418 25.3624C47.5404 31.3506 45.1582 37.0931 40.9189 41.3274C36.6796 45.5617 30.9302 47.9411 24.9349 47.9424Z" fill="black"/>
<path d="M35.2297 9.80957H33.5225V18.3352H16.3992V9.80957H14.6403C12.0641 11.5071 9.94979 13.8165 8.48692 16.5309C7.02405 19.2453 6.2583 22.2797 6.2583 25.3624C6.2583 28.445 7.02405 31.4795 8.48692 34.1939C9.94979 36.9082 12.0641 39.2177 14.6403 40.9152H16.3992V32.3999H33.5225V40.9255H35.2297C37.807 39.2288 39.9223 36.9197 41.386 34.2052C42.8497 31.4907 43.6159 28.4558 43.6159 25.3727C43.6159 22.2896 42.8497 19.2547 41.386 16.5402C39.9223 13.8258 37.807 11.5166 35.2297 9.8199V9.80957ZM14.0195 37.5669C12.4151 36.1431 11.1072 34.4175 10.1705 32.4888C9.23385 30.56 8.68671 28.4659 8.56037 26.3259C8.43403 24.1859 8.73096 22.0421 9.43419 20.0167C10.1374 17.9914 11.2332 16.1242 12.6589 14.5219C13.0863 14.0451 13.5405 13.5932 14.0195 13.1681V37.5669ZM33.5225 30.0231H16.3992V20.6604H33.5225V30.0231ZM35.8504 37.5153V32.3482V18.3352V13.1681C37.4509 14.6036 38.7525 16.3399 39.6809 18.278C40.6093 20.216 41.1462 22.3178 41.261 24.4632C41.3758 26.6086 41.0663 28.7556 40.3501 30.7814C39.6339 32.8073 38.525 34.6723 37.0868 36.27C36.6957 36.7021 36.283 37.1142 35.8504 37.5049V37.5153Z" fill="black"/>
</svg>
