<svg width="145" height="21" viewBox="0 0 145 21" fill="none" xmlns="http://www.w3.org/2000/svg">
<g clip-path="url(#clip0_844_3280)">
<mask id="mask0_844_3280" style="mask-type:luminance" maskUnits="userSpaceOnUse" x="-12" y="-11" width="169" height="43">
<path d="M-11.1055 -10.5028H156.114V31.5005H-11.1055V-10.5028Z" fill="white"/>
</mask>
<g mask="url(#mask0_844_3280)">
<path d="M137.667 9.22343V12.0821H139.792V14.9184C139.799 15.1719 139.784 15.4452 139.738 15.6639C139.654 16.193 139.122 17.0938 137.614 17.0938C136.115 17.0938 135.593 16.193 135.502 15.6639C135.464 15.4452 135.448 15.1719 135.448 14.9184V5.96002C135.448 5.64314 135.471 5.29631 135.542 5.0338C135.645 4.55634 136.092 3.61477 137.603 3.61477C139.188 3.61477 139.584 4.60743 139.675 5.0338C139.735 5.31619 139.738 5.78987 139.738 5.78987V6.87768H144.958V6.23461C144.958 6.23461 144.982 5.5636 144.919 4.9374C144.526 1.26046 141.323 0.0971489 137.649 0.0971489C133.968 0.0971489 130.83 1.27128 130.372 4.9374C130.331 5.27265 130.268 5.8757 130.268 6.23461V14.4754C130.268 14.8344 130.28 15.1122 130.35 15.7681C130.691 19.3439 133.968 20.6114 137.634 20.6114C141.323 20.6114 144.577 19.3439 144.924 15.7681C144.985 15.1122 144.992 14.8344 145 14.4754V9.22343H137.667ZM101.672 0.624441H96.4291V15.1251C96.4374 15.3777 96.4291 15.6617 96.3831 15.8698C96.2737 16.3566 95.8374 17.2934 94.3911 17.2934C92.9633 17.2934 92.5156 16.3566 92.4145 15.8698C92.362 15.6617 92.3554 15.3777 92.362 15.1251V0.624441H87.1211V14.675C87.1144 15.0372 87.1445 15.7772 87.1672 15.971C87.5289 19.6323 90.5805 20.821 94.3911 20.821C98.209 20.821 101.259 19.6323 101.627 15.971C101.656 15.7772 101.694 15.0372 101.672 14.675V0.624441ZM53.5025 0.624441L50.8873 15.9463L48.2738 0.624441H39.8172L39.3687 20.2256H44.5495L44.6898 2.08021L48.2544 20.2256H53.5107L57.0785 2.08021L57.2193 20.2256H62.4131L61.9495 0.624441H53.5025ZM22.1924 0.624441L18.3526 20.2256H23.952L26.8456 2.08021L29.6697 20.2256H35.2303L31.4065 0.624441H22.1924ZM119.993 16.4057L115.112 0.624441H107.419V20.0212H112.508L112.213 3.73508L117.455 20.0212H124.833V0.624441H119.711L119.993 16.4057ZM72.924 5.72569C72.8319 5.33859 72.8585 4.92733 72.9062 4.71239C73.0544 4.08493 73.5003 3.40058 74.7848 3.40058C75.9821 3.40058 76.684 4.10632 76.684 5.16543V6.36398H81.7945V4.9978C81.7945 0.774446 77.7902 0.110992 74.891 0.110992C71.2397 0.110992 68.2577 1.24914 67.7132 4.42697C67.5692 5.29178 67.5335 6.05943 67.7627 7.03901C68.6506 11.0014 75.9456 12.1508 77.0044 14.6567C77.1913 15.1313 77.1378 15.7367 77.0425 16.0933C76.8839 16.7454 76.4199 17.4013 75.0446 17.4013C73.7547 17.4013 72.9783 16.7001 72.9783 15.6433L72.9767 13.7622H67.476V15.2574C67.476 19.5903 71.0651 20.8976 74.9307 20.8976C78.6329 20.8976 81.6907 19.7013 82.1812 16.4585C82.4152 14.783 82.2387 13.6917 82.1448 13.2807C81.2877 9.21663 73.5125 7.99417 72.924 5.72569ZM5.50976 5.67762C5.40941 5.28247 5.43283 4.86542 5.48873 4.64795C5.63033 4.02351 6.07883 3.32709 7.386 3.32709C8.59842 3.32709 9.31229 4.03962 9.31229 5.10729V6.32044H14.4827V4.94344C14.4827 0.679562 10.4172 -3.8147e-06 7.48635 -3.8147e-06C3.80439 -3.8147e-06 0.795854 1.15576 0.24541 4.3565C0.0947566 5.23515 0.0689294 6.00809 0.286658 6.99849C1.18419 11.0059 8.55131 12.1647 9.62318 14.7005C9.82388 15.1719 9.76319 15.7772 9.66364 16.1477C9.49356 16.8066 9.0259 17.4718 7.63914 17.4718C6.34421 17.4718 5.56965 16.7585 5.56965 15.6871L5.56246 13.8009H0V15.2997C0 19.6822 3.6399 21 7.5356 21C11.2809 21 14.3565 19.7931 14.8583 16.5129C15.1077 14.822 14.9205 13.7216 14.8364 13.3043C13.9615 9.19046 6.09986 7.97202 5.50976 5.67762Z" fill="black"/>
</g>
</g>
<defs>
<clipPath id="clip0_844_3280">
<rect width="145" height="21" fill="white"/>
</clipPath>
</defs>
</svg>
