<svg width="188" height="45" viewBox="0 0 188 45" fill="none" xmlns="http://www.w3.org/2000/svg">
<g id="Siemens-logo 1">
<g id="Ebene_x0020_1">
<path id="Vector" fill-rule="evenodd" clip-rule="evenodd" d="M179.156 9.31192V14.5579C176.453 13.5319 174.046 13.0132 171.939 13.0132C170.691 13.0132 169.698 13.2455 168.951 13.6946C168.203 14.1475 167.822 14.7051 167.822 15.3633C167.822 16.2382 168.666 17.0164 170.364 17.7133L175.27 20.1137C179.237 22.0147 181.205 24.5389 181.205 27.7098C181.205 30.3464 180.161 32.4487 178.055 34.005C175.964 35.577 173.148 36.3551 169.644 36.3551C168.026 36.3551 166.575 36.2855 165.284 36.1383C163.994 35.999 162.512 35.7124 160.867 35.302V29.8121C163.883 30.8381 166.628 31.3569 169.101 31.3569C172.051 31.3569 173.518 30.4974 173.518 28.7629C173.518 27.8995 172.917 27.2027 171.697 26.6567L166.247 24.3221C164.237 23.4084 162.743 22.3012 161.764 20.9887C160.802 19.6646 160.312 18.147 160.312 16.4125C160.312 13.9849 161.329 12.0297 163.339 10.543C165.365 9.06793 168.053 8.32849 171.396 8.32849C172.482 8.32849 173.734 8.42524 175.12 8.60335C176.518 8.79307 177.862 9.02536 179.156 9.31192Z" fill="#009999"/>
<path id="Vector_2" fill-rule="evenodd" clip-rule="evenodd" d="M24.8184 9.31192V14.5579C22.1149 13.5319 19.7118 13.0132 17.6052 13.0132C16.3535 13.0132 15.3639 13.2455 14.6167 13.6946C13.8696 14.1475 13.4883 14.7051 13.4883 15.3633C13.4883 16.2382 14.3433 17.0164 16.0416 17.7133L20.948 20.1137C24.8992 22.0147 26.8711 24.5389 26.8711 27.7098C26.8711 30.3464 25.8236 32.4487 23.7324 34.005C21.6258 35.577 18.826 36.3551 15.31 36.3551C13.6925 36.3551 12.2367 36.2855 10.9466 36.1383C9.65645 35.999 8.18915 35.7124 6.53323 35.302V29.8121C9.56021 30.8381 12.3061 31.3569 14.7631 31.3569C17.7131 31.3569 19.1803 30.4974 19.1803 28.7629C19.1803 27.8995 18.5834 27.2027 17.3741 26.6567L11.9248 24.3221C9.89906 23.4084 8.40481 22.3012 7.44208 20.9887C6.46385 19.6646 5.98633 18.147 5.98633 16.4125C5.98633 13.9849 6.99535 12.0297 9.01716 10.543C11.0275 9.06793 13.7194 8.32849 17.0622 8.32849C18.1598 8.32849 19.396 8.42524 20.7978 8.60335C22.1842 8.79307 23.5283 9.02536 24.8184 9.31192Z" fill="#009999"/>
<path id="Vector_3" fill-rule="evenodd" clip-rule="evenodd" d="M30.4414 8.82019H38.4326V35.8635H30.4414V8.82019Z" fill="#009999"/>
<path id="Vector_4" fill-rule="evenodd" clip-rule="evenodd" d="M64.177 8.82019V13.8185H52.3039V19.8156H62.6019V24.3222H52.3039V30.6175H64.4196V35.8635H44.6133V8.82019H64.177Z" fill="#009999"/>
<path id="Vector_5" fill-rule="evenodd" clip-rule="evenodd" d="M101.482 8.82019V35.8635H94.0219V18.0269L86.2815 36.1112H81.6756L74.2314 18.0269V35.8635H68.8359V8.82019H78.5908L85.2494 25.3752L92.2162 8.82019H101.482Z" fill="#009999"/>
<path id="Vector_6" fill-rule="evenodd" clip-rule="evenodd" d="M127.216 8.82019V13.8185H115.408V19.8156H125.706V24.3222H115.408V30.6175H127.459V35.8635H107.652V8.82019H127.216Z" fill="#009999"/>
<path id="Vector_7" fill-rule="evenodd" clip-rule="evenodd" d="M155.257 8.82019V35.8635H146.781L137.269 18.5186V35.8635H131.877V8.82019H140.6L149.866 25.867V8.82019H155.257Z" fill="#009999"/>
</g>
</g>
</svg>
