<svg width="171" height="55" viewBox="0 0 171 55" fill="none" xmlns="http://www.w3.org/2000/svg">
<path id="path2654" d="M28.1585 0.613281C13.3516 0.613281 1.34914 12.4888 1.34914 27.1387C1.34909 37.0005 6.79139 45.6133 14.868 50.1846L0.664062 50.1392V54.3869H26.1489V49.6423C14.5355 48.6101 5.41392 38.9417 5.41392 27.1838C5.41392 14.7372 15.6243 4.63518 28.2041 4.63518C40.7839 4.63518 50.9487 14.7372 50.9487 27.1838C50.9487 39.1803 41.4307 48.9482 29.4829 49.6423V54.3869H54.8308V50.2296H41.4489C49.5584 45.6693 54.9678 37.0295 54.9678 27.1387C54.9677 12.4888 42.9652 0.613281 28.1585 0.613281ZM9.84408 17.9654V36.5828H13.8632V23.7045L21.4447 36.5828H46.7469V17.9654H42.8191V30.8442L34.6895 17.9654H9.84408ZM60.7224 17.9654V36.5828H91.9162V32.742H79.8132V28.9009H91.9162V25.3312H79.8132V21.8516H91.9162V17.9654H60.7224ZM101.37 17.9654V36.5828H120.507V28.9009H132.61V25.3312H120.507V21.8516H132.61V17.9654H101.37ZM139.141 17.9654V36.5828H158.369V28.9009H170.335V25.3762H158.369V21.8516H170.335V17.9654H139.141Z" fill="#B60030"/>
</svg>
