<svg width="73" height="73" viewBox="0 0 73 73" fill="none" xmlns="http://www.w3.org/2000/svg">
<path fill-rule="evenodd" clip-rule="evenodd" d="M36.3935 1H36.6065C41.896 1 46.014 1 49.3226 1.24495C52.6845 1.49345 55.4286 2.00465 57.9278 3.1371C63.222 5.53628 67.4637 9.77798 69.8629 15.0722C70.9989 17.5714 71.5065 20.3155 71.7551 23.6774C72 26.986 72 31.104 72 36.3899V36.6101C72 41.896 72 46.0105 71.7551 49.3226C71.5065 52.6845 70.9954 55.4286 69.8629 57.9278C67.4637 63.222 63.222 67.4637 57.9278 69.8629C55.4286 70.9989 52.6845 71.5065 49.3226 71.7551C46.014 72 41.896 72 36.6101 72H36.3899C31.104 72 26.9895 72 23.6774 71.7551C20.3155 71.5065 17.5714 70.9954 15.0722 69.8629C9.77798 67.4637 5.53628 63.222 3.1371 57.9278C2.0011 55.4286 1.49345 52.6845 1.24495 49.3226C1 46.014 1 41.896 1 36.6101V36.3899C1 31.104 1 26.9895 1.24495 23.6774C1.49345 20.3155 2.00465 17.5714 3.1371 15.0722C5.53628 9.77798 9.77798 5.53628 15.0722 3.1371C17.5714 2.0011 20.3155 1.49345 23.6774 1.24495C26.986 1 31.104 1 36.3899 1H36.3935ZM24.0643 6.55575C21.0007 6.78295 18.9594 7.2196 17.2661 7.9864C13.1482 9.85245 9.8489 13.1517 7.98285 17.2696C7.21605 18.963 6.77585 21.0042 6.5522 24.0679C6.325 27.1635 6.325 31.0827 6.325 36.5C6.325 41.9173 6.325 45.8365 6.55575 48.9321C6.78295 51.9958 7.2196 54.037 7.9864 55.7304C9.85245 59.8483 13.1517 63.1476 17.2696 65.0136C18.963 65.7804 21.0042 66.2206 24.0679 66.4442C25.0441 66.5152 26.1056 66.5685 27.27 66.6004V54.9564C24.332 53.6256 21.7165 51.6751 19.6029 49.2387C17.4893 46.8023 15.9277 43.9376 15.025 40.8411C14.1223 37.7445 13.8999 34.4894 14.3732 31.2989C14.8464 28.1084 16.004 25.058 17.7666 22.3568C19.2683 20.0564 21.8491 19.3961 24.0395 20.3298C26.0807 21.1995 27.4653 23.2976 27.4653 25.7613V32.4991C27.4653 32.8186 27.6356 33.1133 27.9161 33.273L36.0669 37.8454C36.1993 37.9194 36.3484 37.9583 36.5 37.9583C36.6516 37.9583 36.8007 37.9194 36.9331 37.8454L45.0839 33.273C45.2209 33.1956 45.3349 33.0831 45.4141 32.9471C45.4933 32.8112 45.535 32.6565 45.5347 32.4991V25.7577C45.5347 23.2976 46.9193 21.1995 48.9605 20.3262C51.1508 19.3961 53.7317 20.0564 55.2334 22.3568C56.9959 25.0582 58.1533 28.1089 58.6263 31.2995C59.0993 34.4902 58.8766 37.7454 57.9736 40.842C57.0706 43.9385 55.5085 46.8032 53.3946 49.2394C51.2806 51.6757 48.6648 53.6259 45.7264 54.9564V66.6004C46.8944 66.5649 47.9523 66.5188 48.9321 66.4442C51.9958 66.217 54.037 65.7804 55.7304 65.0136C59.8483 63.1476 63.1476 59.8483 65.0136 55.7304C65.7804 54.037 66.2206 51.9958 66.4442 48.9321C66.675 45.84 66.675 41.9173 66.675 36.5C66.675 31.0827 66.675 27.1635 66.4442 24.0679C66.217 21.0042 65.7804 18.963 65.0136 17.2696C63.1476 13.1517 59.8483 9.85245 55.7304 7.9864C54.037 7.2196 51.9958 6.7794 48.9321 6.55575C45.8365 6.325 41.9173 6.325 36.5 6.325C31.0827 6.325 27.1635 6.325 24.0679 6.55575H24.0643ZM40.405 66.6714V56.6036C37.8215 57.0585 35.1785 57.0585 32.595 56.6036V66.6714L36.5 66.675L40.405 66.6714ZM50.9023 25.4595C50.8734 25.555 50.8591 25.6544 50.8597 25.7541V32.4956C50.8599 33.5987 50.5663 34.682 50.0091 35.634C49.452 36.5861 48.6514 37.3727 47.6896 37.9129L39.5424 42.4853C38.6133 43.0071 37.5656 43.2812 36.5 43.2812C35.4344 43.2812 34.3867 43.0071 33.4576 42.4853L25.3104 37.92C24.3486 37.3798 23.548 36.5932 22.9909 35.6412C22.4337 34.6891 22.1401 33.6058 22.1402 32.5027V25.7577C22.1409 25.6579 22.1266 25.5586 22.0976 25.463C20.4673 28.0403 19.5585 31.0078 19.4661 34.056C19.3736 37.1041 20.1008 40.1213 21.5719 42.7926C23.043 45.4639 25.204 47.6914 27.8295 49.2429C30.4549 50.7943 33.4486 51.6127 36.4982 51.6127C39.5478 51.6127 42.5415 50.7943 45.167 49.2429C47.7924 47.6914 49.9534 45.4639 51.4245 42.7926C52.8956 40.1213 53.6229 37.1041 53.5304 34.056C53.4379 31.0078 52.5291 28.0403 50.8988 25.463L50.9023 25.4595Z" fill="#2C6AC8" stroke="#F4F6F8"/>
</svg>
